<svg viewBox="0 0 100 100" xmlns="http://www.w3.org/2000/svg"><path d="M68.971.556c1.304.41 2.396.709 3.465 1.636l3.268 3.28.198-2.207c.69.143 1.251.65 1.782 1.095 1.837 1.547 1.364 1.257 2.772 2.917V5.17c.6.165.824.468 1.287.86l1.783 1.547 1.554 1.604c1.247 1.474 2.763 4.044 3.293 5.917l.301 1.604h.198l.99-2.607c.5.156.583.381.877.802.501.717.963 1.612 1.337 2.407 1.802 3.827 1.71 5.736 2.78 9.527l.452 1.304c.734-.396.634-1.54 1.269-1.544.305-.002.439.608.51.842.284.922.515 1.855.671 2.808.404 2.453.326 5.131.322 7.621-.001.86-.222 2.35-.396 3.21-.123.602-.388 1-.297 1.604l1.06-.831.92-.874c.227 1.28.013 1.588 0 2.708-.047 4.115-.868 9.692-2.804 13.338-.312.588-.783 1.06-1.156 1.605l2.772-1.204c-.054.614-.552 2.019-.75 2.708-.867 3.002-1.707 5.198-3.443 7.822-.414.625-.515.618-.937 1.107l-1.133 1.5-1.757 2.407c-.14.216-.496.733-.472.989.026.27.362.337.571.415-.133.658-.199.717-.464 1.304-1.086 2.402-2.75 3.896-4.684 5.598l-1.246.971-1.013 2.055c-.243.395-.682.961-1.018 1.274-.25.233-.626.464-.809.741-.338.513.017.91-.412 1.494-.835 1.133-3.346 1.89-4.71 1.907-.313.003-1.004-.068-1.228.16-.327.331.06.889-.483 1.54-.525.632-1.142.602-1.398.877-.329.35.026.942-.346 1.533-.571.91-1.985 1.24-2.98 1.058-.48-.088-.93-.294-1.387-.455-.071.297-.097.852-.271 1.06-.612.728-2.134-.177-2.7-.559.105.412.298.808-.121 1.119-.433.322-1.348.184-1.858.43l-1.387.913c-1.073.648-1.435.793-2.574 1.23-1.37.525-2.166.63-3.564.902-2.515.488-4.786.506-7.327.33l-1.782-.154c-1.302-.208-4.307-1.193-5.545-1.733l-1.485-.664-1.188-.76c-.659-.28-1.924.166-2.161-.91a3.598 3.598 0 0 1 0-.602c-.53.338-1.992 1.308-2.533.67-.149-.175-.277-.897-.356-1.172-.809.559-2.24.817-3.168.455-.966-.376-1.612-1.356-1.089-2.36-.683-.294-1.283-.245-1.771-.92-.54-.748-.09-1.3-.62-1.51-.255-.125-.963.04-1.371 0-.936-.046-2.144-.26-2.97-.71-.526-.288-1.234-.82-1.494-1.373-.229-.487-.125-.749-.348-1.103-.244-.387-.792-.78-1.12-1.112l-.521-.593c-1.102-1.233-2.27-1.734-3.445-2.754L12.14 78.88c-.622-.795-1.733-2.403-1.782-3.41l.396-.1c-1.739-3.057-3.033-3.736-4.71-6.117-1.252-1.778-2.297-4.244-2.98-6.318l-.839-2.708c-.16-.569-.337-.912-.184-1.504.862.488 1.709 1.04 2.673 1.303-.388-.73-.599-.655-.98-1.207-.4-.58-.983-1.916-1.252-2.603C.936 52.273.456 46.906.456 42.678c.67.252.552.555 1.01.938.353.296.826.402 1.267.466l-.373-1.505c-.195-.847-.321-1.74-.402-2.607-.345-3.658-.033-9 1.27-12.435.68.214.925 1.23 1.386 1.805l1.101-3.911c.5-2.133 1.194-5.343 2.225-7.22.34-.62 1.03-1.9 1.429-2.407.156-.2.452-.622.751-.485.2.091.337.49.42.685.28.657.37 1.015.807 1.605l.538-2.106c.331-1.096 1.242-2.963 1.874-3.911.847-1.274 2.127-2.476 3.232-3.52.64-.603 2.045-1.909 2.772-2.297v2.206l.912-1.303c.717-.856 2.735-2.554 3.741-3.009l.198 2.307 1.98-2.102c.6-.582 2.086-1.935 2.773-2.298l1.98-.715c.592-.197 1.37-.471 1.98-.501-.406.851-1.074.79-1.287 1.805C33.735 1.425 35.72.56 37.585.558h2.772l2.08.2V.96c-.879.505-3.78 1.525-4.852 1.872-.62.2-1.633.284-2.08.736l2.476.1c-.032.19-.025.282-.159.44-.189.226-1.759 1.118-2.118 1.323-1.46.835-3.84 1.84-5.446 2.382-.72.244-2.156.708-2.871.769l.308.229 2.464.373c-.294.624-.837.928-1.386 1.303l-2.178 1.486-6.04 3.703-2.079.984-1.485.546 2.673.502c-.227.72-.808 1.394-1.245 2.006-1.056 1.475-3.244 3.778-4.596 4.986-.836.746-2.63 2.215-2.97 3.237.256-.046.73-.228.947-.094.232.143.298.641.322.896.063.628-.042 1.871-.14 2.507-.411 2.664-1.072 4.694-1.922 7.22l-1.089 3.21 1.57-.401c.147 1.658.206 3.358 0 5.014L9.531 50.5c-.2.884-.713 2.896-.065 3.61l.495-1.404h.198l1.086 2.607c.601 1.21 1.621 2.55 2.459 3.61.452.573 1.082 1.444 1.604 1.906l.099-2.206v-3.11l-.1-1.704V50.2l-.092-1.504.294-1.003.393-1.906h.198c.216.769-.095 2.07.693 2.508v-2.407l.099-1.505v-1.704l.198-2.507c.017-.911.518-.74.678-.389.213.466.095 1.202.41 1.893l.176-2.706c.132-.632.378-.495.484-.914.102-.383-.107-.918 0-1.163.129-.306 1.135-.312 1.36-.13.3.243 0 .797.093 1.198.098.426.396.378.515.91l.244 2.805c.619-1.327-.09-2.01.792-2.307l.142 1.505.353 2.607v3.209l.1 1.605.322-.315.271-1.892h.198l.183 1.505c.02.18.014.5.173.62.242.179.448-.125.52-.324l.412-2.102c.377.253.361.572.396 1.003.444-.53.297-1.35.297-2.005h.396V43.48c.24 0 .833-.056.984.16.086.135.008.83 0 1.043.95.078.5.431.5 2.106l.595-1.003c.178 1.28.58 1.306.594 2.508.004.393-.07 1.814.1 2.074.183.277.602.231.89.232h5.248l1.188-.096h1.188l.192-2.006.413-.715.385-.994c.575.308.43.505.689 1.003.213.41.499.54.581 1.304.037.345-.066 1.09.175 1.33.252.25 1.166.174 1.525.174l.1-4.412v-6.62l-.332-1.704.26-.903.368-1.404.396 2.006h.396c-.019-.394-.367-1.257.3-1.187l.393.084.268-1.186c.142-.32.379-.432.469-.82.128-.431-.044-.892 0-1.203.038-.503.474-1.006.848-1.304.215.454.453.795.547 1.304.215 1.147-.29.94.542 2.106l.099-3.21v-5.014l-.076-1.203.352-1.003.318-1.905c.24.377.287 1.428.297 1.905h.198c.012-1.262.344-1.134.541-2.005l.234-3.811c.062-.653-.056-1.144.61-1.505v.502c.929-.943.147-1.605.461-2.607.177-.565.603-.651.711-1.105.104-.433-.244-1.238-.15-1.703.075-.361.31-.507.417-1.003l.064-.903.173-1.003V8.782l.107-1.304V4.469c-.017-.901-.395-.688-.551-1.303-.113-.447.032-.757.452-.903l-.198.502.495-.402h.198l.495.402-.198-.502c.337.183.518.383.469.802-.058.483-.432.607-.552 1.012v2.699l.083 1.404c.004.86.153 2.788.318 3.61.101.504.378.619.414 1.003l-.219 1.203c-.088 1.001.598.71.805 1.605.136.586-.095.903-.104 1.404-.007.369.176.745.271 1.103h.198l.198-.602h.198c.478.998.295 2.774.297 3.911.001.328.07 1.315.14 1.605.15.61.435.521.554 2.006l.238-.312.257-1.895c.36.244.357.684.387 1.103l.306 2.708v5.616c0 .72.025 2.695.198 3.31l.278-1.204c.141-.882.098-1.86 1.009-2.307.134.228.282.45.37.702l.233 1.404.42 1.603c.187.528.49.442.66.676.163.222.057.589 0 .83l.099.1h.198l.297-2.005c.829.294-.001 1.364.891 1.905l-.297 2.407v6.72l.1 4.211c.47 0 1.501.106 1.722-.415.065-.154.058-.42.06-.588.002-.45-.019-1.072.167-1.487l.441-.72c.111-.263.185-.838.564-.84.373-.003.378.611.469.837.128.316.35.416.494.715.175.361.138.896.141 1.295l.1 1.103h8.316c0-.643.046-2.565.191-3.11l.38-1.002c.156-.44.111-1.029.518-1.304l.1.903h.197c0-.533-.038-1.201.112-1.705l.231-.602.113-.57c.138-.28.727-.314.914-.074.147.19.116.703.116.945.735.291.127 1.172.594 2.307l.198-1.204h.198l.35 1.805c.054.168.204.547.445.406.568-.336-.049-1.44.69-1.91.081.625.016 1.655.594 2.006l.099-1.705.099-4.111c0-.708.123-1.406.225-2.106.056-.384.038-.67.369-.903l.396 2.407.156-2.307.14-.828.694-.175c-.077-.322-.233-1.591.06-1.815.13-.069.55-.014.732 0 .166-.026.368-.077.492.075.381.464-.595 1.662.597 1.64.276 1.151-.117 2.14.297 3.41l.396-2.507c.569.362.517 1.481.64 2.106l.215.802c.197.98.135 2.013.135 3.009 0 .932-.125 2.033.198 2.908.697-.97.103-1.003.694-2.507h.198l.484 2.092.308.314-.1 4.313v2.507l-.098 1.705.099 3.61 1.967-2.507c1.114-1.505 2.365-3.352 2.785-5.215.56.192.343.396.99 1.203.23-.961-.103-2.429-.297-3.41-.478-2.423-1.184-4.382-1.188-6.919 0-.553-.024-1.056.075-1.605.035-.19.06-.452.265-.535.203-.082 1.074.18 1.343.235-.041-.859-.785-2.508-1.089-3.41-.75-2.23-1.473-4.49-1.856-6.82-.096-.581-.234-1.736-.222-2.306.006-.257.043-.94.255-1.097.128-.094.733-.09.932-.106-.6-.96-2.013-2.24-2.871-3.026a40.12 40.12 0 0 1-3.577-3.693c-.62-.733-1.795-2.282-1.968-3.21l2.178-.4-1.98-.83-1.782-.919-1.485-.928c-1.586-.885-3.2-1.753-4.654-2.85-.726-.548-2.386-1.342-2.772-2.095l2.574-.602c-2.69-.79-5.309-1.608-7.821-2.883-.741-.376-2.317-1.105-2.674-1.83l2.574-.301c-.625-.308-1.67-.51-2.376-.69l-2.871-.91c-.605-.223-1.313-.337-1.782-.807.505-.213 1.231-.294 1.782-.3 1.342-.017 3.303-.295 4.554-.07l4.159 1.473C68.134.926 67.394.887 67.09.057c.717.06 1.21.287 1.88.5zm-6.04.604v.2l1.783.857 1.188-.356v-.2c-.726-.308-2.212-.686-2.97-.501zm-28.313.614c-.209.088-.244.138-.4.288 1.095.485 1.36.374 2.377-.111.388-.186.537-.207.89-.49-.559-.136-2.323.084-2.867.313zm35.343.288c.092.664.516 1.081.904 1.605.547.739 1.157 1.8 2.166 1.883.327.027.678-.087.99-.179-.462-1.408-2.676-2.91-4.06-3.309zM27.288 4.37c-.463.47-.786.755-.99 1.404 1.749.583 2.411-.61 3.268-1.906l.99-1.404c-1.276.063-2.406 1.03-3.268 1.906zm22.376-1.003l-.099-.401.1.4zm.891 0l.1-.401-.1.4zm-.792.2l.594-.1-.594.1zm29.693 1.317c-.635.185-1.235-1.173-.283-1.55.991-.002.784 1.405.283 1.55zm-9.416.388c-1.146-1.473-2.543-2.067-4.336-1.404.325.694.682.774 1.287 1.137L69.17 6.1c.58.284 1.144.655 1.783.777-.187-.66-.499-1.073-.912-1.605zM32.833 3.967c-.32.005-.49.008-.792.137-.985.419-2.449 2.143-2.773 3.173.574-.166 1.054-.509 1.584-.777 1.041-.528 3.258-1.373 3.763-2.432-.675-.123-1.104-.11-1.782-.1zm-11.361.177c.326.3-.06 1.166-.426 1.254-.445.105-.798-.57-.696-.907.074-.245.296-.298.504-.347.189-.053.453-.115.618 0zm58.292 5.239c.106-.602-.272-1.132-.61-1.605l-2.46-3.008c-1.47 1.948 1.59 3.944 3.07 4.613zM23.526 5.17l-1.973 2.507c-.586.712-1.05 1.136-1.097 2.106.572-.108.795-.289 1.287-.574 1.682-.973 2.589-2.026 1.98-4.04h-.197zm50.522 2.306c.05.419.495.948.95.792.548-.19.495-1.436.07-1.643-.154-.067-.296-.027-.452 0-.388.155-.624.387-.568.851zm-48.35 1.268c.61-.125.86-1.743-.29-1.807-1.03.358-.627 1.997.29 1.807zm55.848.237c.028 2.457 1.363 3.25 3.168 4.555.626.452 1.834 1.221 2.574 1.361-.172-1.234-.977-2.238-1.696-3.209l-3.75-4.613c-.393.562-.303 1.245-.296 1.906zm-12.307.082c-.447.282-.83-.15-.875-.584-.041-.4.121-.575.414-.794.883-.174.923 1.086.46 1.378zM14.714 14.77c.566-.33.968-.644 1.485-1.038 1.145-.871 2.335-1.882 2.472-3.447.068-.881.064-.739 0-1.604-.008-.198-.009-.58-.177-.714-.208-.165-.435.078-.57.22l-1.156 1.396c-1.251 1.523-3.545 4.082-3.935 6.018.767-.044 1.227-.449 1.88-.83zm16.54-5.27c-.53-.16-.78-1.25.095-1.542 1.13.114.636 1.76-.095 1.541zm45.738-.104c-.833-.316-1.441-.2-2.278-.12-.563.052-.953.083-1.485.307 1.12 1.57 3.292 2.294 4.95 3.134.599.302 1.697.998 2.278 1.078-.61-1.435-1.98-3.837-3.465-4.4zm-55.244 1.692c-.473.496-.634.844-.994 1.404-.486.753-.946 1.382-.99 2.306l1.584-1.161 3.663-2.006c.703-.407 1.739-.916 1.98-1.747-2.108-.384-3.646-.475-5.243 1.204zM80.92 12.19c.376 1.046 1.279 2.274 2.407 2.507-.135-.651-.589-1.097-.99-1.605l-.876-1.103-.709-1.003c-.152.422.022.797.168 1.204zm-61.355-1.003c-.332.752-1.186 1.955-1.71 2.607-.426.533-.945 1.044-1.162 1.705 1.868-.384 2.829-2.585 3.07-4.312h-.198zm69.692 2.533c-.867.358-1.434-1.096-.48-1.653 1.168-.164 1.134 1.382.48 1.653zm-78.013 1.03c-.526.228-.91-.247-.87-.755.036-.44.322-.712.679-.912.943-.126.86 1.376.19 1.667zm78.222 4.26c.028 2.462 1.016 4.586 2.603 6.417.474.548 1.28 1.474 1.951 1.705-.045-.988-.597-2.66-.948-3.61-.985-2.666-2.286-5.025-2.517-7.923-.921.494-1.1 2.447-1.09 3.41zm-9.905-1.872c-.666.205-.98-1.02-.37-1.464 1.234-.296 1.063 1.25.37 1.464zm6.527.484c.583-.196.462-1.52.235-1.748-.214-.217-.544-.171-.807-.114-.857.552-.245 2.137.572 1.862zm-65.05.108c-.721.28-1.345-1-.38-1.55.997-.144.962 1.325.38 1.55zm-6.917.745c1.151.25 1.285-2.162-.097-2.01-.859.492-.635 1.851.097 2.01zm-4.557-1.672c-.305.846-.276 1.874-1.035 3.81l-2 5.015c-.22.696-.544 1.794-.43 2.507.889-.353 1.813-1.622 2.375-2.407.73-1.018 1.645-2.584 1.932-3.81.209-.895.152-1.889.148-2.809-.005-.976-.275-1.5-.792-2.306h-.198zm74.201 2.407c.514 1.217 1.496 2.123 2.433 3.017.44.42.79.834 1.287 1.195-.266-1.194-1.213-3.81-2.026-4.67-.677-.717-1.226-.882-2.033-1.347-.23.59.108 1.26.34 1.805zm-67.864-.631c-1.714.926-2.119 2.072-2.706 3.84l-.561 1.805c.698-.506 1.516-1.356 2.096-2.006l1.068-1.203c.518-.698 1.15-2.032 1.192-2.908-.458.126-.676.248-1.089.472zm71.683 1.132c-.003.602-.05 1.883.092 2.407.137.505.618 1.233.898 1.705.401.675.77 1.329 1.584 1.504l-.813-1.605-.927-2.106-.636-3.008c-.2.398-.196.666-.198 1.103zm-75.91 2.708L9.763 26.43c.868-.186 1.15-.902 1.575-1.604.601-.992 1.152-1.8 1.28-3.009.082-.78-.082-1.538-.182-2.306l-.761 2.908zm38.187-.502c0 .402-.048.827.1 1.204.153-.868.298-2.776.098-3.61-.282.62-.198 1.702-.198 2.406zm1.09-2.406l-.1 2.507c0 .459-.079.822.198 1.203.187-.669.1-2.88.1-3.71h-.199zm-1.981 2.707c.001.317-.018.504.099.803l.099-3.41c-.33.516-.199 1.948-.198 2.607zm46.536 3.845c-.175-.051-.33-.197-.44-.34-.424-.555-.154-1.125.344-1.495 1.44-.416 1.192 2.157.096 1.835zm-90.486.468c-.12.337-.503.736-.89.617-.484-.15-.814-1.394-.1-1.845.732-.135 1.227.56.99 1.228zm82.263.435c-.599.183-1.265-.92-.381-1.636 1.152-.368 1.073 1.424.381 1.636zm-74.257.735c-.75.168-1.251-1.067-.292-1.594 1.056-.15.975 1.44.292 1.594zm79.802 1.977c.684-.25.834-2.045-.48-1.784-.764.49-.42 2.113.48 1.784zm-.59 4.274c-.015-1.279-.232-2.731-.925-3.811-.394-.613-1.05-1.688-1.748-1.906-.226 1.276-.083 3.02.071 4.313.083.703.098 1.416.273 2.106l.74 2.106c.257.714.65 2.228 1.292 2.607.277-2.13.322-3.275.297-5.415zm3.564-5.316c-.418.827-.66 1.99-.817 2.909-.367 2.139-.446 4.602.088 6.719.228.904.63 2.388 1.323 3.008l.1-1.905v-1.705l-.1-2.106-.297-3.911-.099-1.605v-1.404h-.198zm-47.327.402c.635.156 1.602.108 2.278.1.384-.005.64.025.89-.301-.8 0-2.502-.11-3.168.2zM7.76 30.582c.5-.209.297-1.247.065-1.47-.211-.2-.469-.164-.722-.114-.89.593-.056 1.882.657 1.584zm.56 1.465c-.942 2.537-.452 5.88-.24 8.524.154-.082.206-.085.333-.23.266-.304.83-1.999.987-2.477.702-2.123 1.013-3.581 1.164-5.817.07-1.045.146-1.75-.108-2.808-.956.459-1.77 1.824-2.136 2.808zm84.81.2c-.012 1.09-.02 2.66.178 3.711.128.674.33 1.613.812 2.106l-.198-3.209v-2.808l.095-1.203V29.44c-.445.587-.878 2.056-.887 2.808zm-89.11-.2l-.188 2.808-.117 2.507-.09 1.003c-.012 1.09-.275 3.288.099 4.212.803-1.435 1.58-4.26 1.584-5.917v-1.905c-.002-1.589-.682-3.384-1.09-4.914-.333.46-.196 1.617-.197 2.206zm1.964-.702L6.1 33.05v2.908l-.099 1.705-.099 1.605c.57-.499.367-.95.62-1.605a5.75 5.75 0 0 0 .37-2.006c.008-1.723.093-2.76-.554-4.412-.134-.341-.221-.602-.436-.903l.082 1.003zm42.492.401v2.307l.1 1.404.098-2.908-.095-1.003v-1.103l-.103 1.303zm1.881-1.303v1.002c-.002 1.14-.32 2.953.1 4.012l.098-1.003.098-1.605-.094-1.002v-1.404h-.202zm-.99 1.504v3.51c.349-.246.295-.502.297-.903v-2.106l-.099-1.905-.198 1.404zm1.98-.501c-.006 1.09-.345 3.035.1 4.01.22-1.684 0-3.238 0-4.913-.126.32-.098.565-.1.903zm-2.475 5.315l-1.584.1 1.683.1h1.584l1.486-.1-3.169-.1zm40.491 2.762c-.855.214-1.34-1.449-.29-1.886 1.172-.085.99 1.712.29 1.886zm10.07.92c-.395.195-.798-.22-.9-.576-.162-.554-.041-1.012.447-1.314 1.303-.301 1.123 1.561.453 1.89zm-88.206.111c-1.012.606-1.49-1.085-.66-1.784 1.04-.312 1.396 1.344.66 1.784zm33.882.419l-.099 1.604V59.024l.1 1.504c.403-.279.388-.423.395-.902v-1.304l.1-1.304v-9.427l-.1-1.504c-.002-1.562.121-5.19-.198-6.518-.289.398-.197.925-.198 1.404zm11.64-1.298c-.19.128-.23.488-.253.696v1.203l-.1 1.003V58.422l.1 1.304v1.905c.002.214-.026.553.158.7.207.166 1.495.105 1.822.102.447-.006 1.443-.048 1.782-.3l-2.772-.1V39.674c-.19-.021-.581-.095-.737 0zm-14.016.094v6.82l-.099 1.704v9.728l-.099 1.504v2.407l-2.079.1c-.442.002-.72-.074-1.09.2l.991.11h3.172v-1.614l.095-1.203V39.77h-.89zm12.08-.1v2.507l-.1 1.705v14.24l.1 2.406h.197c.235-.836.198-2.03.198-2.908V44.382l-.099-1.505c-.002-1.077.04-2.14-.099-3.209h-.198zM1.04 41.81c-.383.246-.765-.073-.907-.44a1.267 1.267 0 0 1 .344-1.398c1.119-.37 1.393 1.305.563 1.838zm49.614 2.47v12.035c.002.387.064 1.263.198 1.605V40.07c-.266.68-.198 3.334-.198 4.212zm-2.079-2.707l-.099 1.505V54.61l.099 1.404.099 1.805V40.27l-.099 1.304zm42.25 2.407l.407 4.413c.07.73.028 1.409.314 2.106h.198c.232-.46.268-.643.437-1.104.83-2.245 1.089-4.678-.175-6.819-.281-.476-.854-1-1.252-1.404-.229.585-.01 2.136.071 2.808zm3.592-.982c.804-.246.945-2.03-.385-1.766-.762.49-.397 2.006.385 1.766zM19.268 45.05c1.647.186 2.433-1.967 1.087-2.765-.374-.222-.77-.223-1.186-.175-1.622.444-1.357 2.776.1 2.94zm61.584-.1c.997-.207 1.409-1.458.827-2.269-.4-.556-.888-.644-1.52-.571-1.807.533-1.267 3.245.693 2.84zm-75.05-.684c.83-.097.874-1.797-.099-1.924-1.06.34-.845 2.034.1 1.924zm1.386 3.225c.001.913.133 1.348.394 2.206.228.752.362 1.59.992 2.106l.314-2.808.198-2.407.265-2.005.213-2.207c-1.902.869-2.379 3.218-2.376 5.115zm12.871-5.115l-.184.502c-.194.762.482.761.976 1.203l-1.584-.4.594-1.305h.198zm61.683 1.003v.2l-.986.103-.895 1 .495-1.503 1.386.2zm13.921 3.21c-.686 1.717-1.157 4.363-1.148 6.217.003.676.171 2.086.396 2.708.762-.386 1.17-1.91 1.466-2.708.68-1.828.864-3.216 1.135-5.115.185-1.298.37-2.597.37-3.91-.995.476-1.813 1.794-2.219 2.807zM2.378 48.092c.32 2.185.595 4.555 1.404 6.618.295.754.59 1.69 1.228 2.207.6-1.193.51-2.703.495-4.012-.02-1.737-.902-4.78-1.856-6.217-.433-.653-.87-1.056-1.411-1.605-.283.554.042 2.336.14 3.009zM92.93 50.9c0 .583-.099 1.287.198 1.805l.906-3.811.777-3.41c-1.456 1.23-1.878 3.585-1.88 5.416zM5.704 49.096c.484 1.576 1.053 3.255 1.186 4.913h.198l.068-1.103c-.068-.913-.053-2.261-.256-3.108-.225-.938-.983-2.275-1.594-3.009-.22.57.216 1.71.398 2.307zm84.214 1.686c-.37.248-.79.022-.906-.385-.144-.515-.05-1.062.365-1.398 1.104-.303 1.03 1.46.541 1.783zm-79.17 1.238c-.5.152-.902-.366-.944-.818-.044-.458.182-.807.561-1.02 1.067-.07 1.128 1.61.383 1.838zm72.083 9.31v-3.41l.1-1.604v-3.21l-.1-1.503c0-.26.03-.97-.073-1.174-.048-.095-.12-.17-.232-.17-.342.003-.289.619-.289.842v2.507l-.099 1.705v8.123c.664-.54.69-1.292.693-2.106zm-6.237-9.828l-.1 1.505V62.133l-.065.902.066.903v1.805c.565-.52.395-1.284.396-2.006l.099-1.705v-8.524l-.1-1.504c0-.512.086-1.061-.197-1.505l-.1 1.003zm-53.564-.601v2.005l-.1 1.605v9.928c.005.572-.003.777.496 1.103l.099-2.106V52.304l-.1-1.404h-.395zm-5.149 8.624l.1-2.006-.1-1.303v-4.313c-.007-.484.023-.712-.495-.802l-.099 1.304v3.109l-.095 1.203v1.705l-.3 3.31c-.022.988.057 1.895.99 2.406v-4.613zm19.406-5.616v3.51l-.099 1.504v8.324l.1 1.404c0 .19-.019.61.059.771.085.179.177.176.336.232.107-.82.095-.894.1-1.705l.098-1.404V54.611c0-.738.1-1.146-.297-1.805-.35.386-.296.605-.297 1.103zm24.653 5.014v9.227c0 .165-.014.517.057.658.113.227.41.256.53-.072a5.24 5.24 0 0 0 0-.586V53.508c-.002-.481 0-.614-.488-.702l-.099 6.118zm8.772-5.918c-.169.147-.153.399-.158.603l-.099 1.404v12.436c.003.244-.004.633.183.815.208.201.64.106.906.087V52.806c-.225.02-.657.047-.832.199zm-41.347 13.84V55.013l-.127-1.581c-.102-.342-.505-.361-.663-.164-.123.157-.1.546-.1.742v2.106l-.1 1.605v9.727c0 .239-.04.867.101 1.043.174.218.56.102.79.06l.1-1.704zM89.86 54.31c-.565.854-1.704 2.048-2.089 2.908-.245.55-.252.933-.328 1.504-.09.657-.116 1.08.14 1.705l.745-1.103 1.287-1.605c.563-.946.632-2.345.443-3.41h-.198zm2.846.616c-.302.418-.312 1.562.327 1.666 1.296.21 1.24-2.095 0-1.92-.16.094-.203.082-.327.254zm6.055 1.868c-.428.206-.763-.207-.882-.58a1.28 1.28 0 0 1 .418-1.39c1.176-.23 1.309 1.563.464 1.97zm-88.703.324c.002 1.43.502 1.74 1.321 2.808.362.473.677.976.957 1.504.166-.062.384-.12.496-.271.222-.3.017-1.28-.066-1.635-.323-1.375-1.06-2.122-1.853-3.209l-.657-1.002c-.297.517-.199 1.221-.198 1.805zm-3.07.833c.905-.24.622-1.69.256-1.935-.183-.122-.352-.083-.551-.059-1.046.44-.59 2.227.295 1.994zm-5.168.296c-.438.318-.88.02-1.054-.43a1.323 1.323 0 0 1 .316-1.4c1.23-.458 1.468 1.298.738 1.83zm87.906 2.18c-.255.352-.607.856-.63 1.304-.026.497.31 1.004.566 1.404h.198c.503-1.273.833-2.19 1.674-3.31.488-.65 1.266-1.236 1.594-1.805-1.246-.18-2.738 1.485-3.402 2.407zm-38.537-1.242l-1.23-.706-1.188.343c-.553.516-.95.074-1.683-.1.118 1.324.751 1.325 1.287 2.315h-.99l-.693.084-.891-.09h-1.684c.003.262-.014.974.104 1.178.149.257.42.304.688.32.806.046 1.1-.245 2.278-.193.594.026 1.628.394 2.15.051.267-.176.458-.943.523-1.258.035-.166.081-.482.309-.482.226 0 .331.314.403.482.09.21.515 1.207.644 1.303.182.135 1.112 0 1.416 0l2.475-.072c.21-.025.669-.005.818-.127.27-.222.098-.89.073-1.205h-3.564c-.204 0-.67.03-.74-.231-.056-.216.204-.513.323-.671.374-.498.548-.665.615-1.304l-1.444.363zM11.11 62.834c-.038-.378-.49-1.003-.723-1.304-.82-1.056-1.95-2.095-3.3-2.306.119.73.9 1.031 1.326 1.604.476.64 1.189 1.781 1.514 2.507l.427 1.103h.198c.18-.349.594-1.23.558-1.604zm74.16-1.605a17.594 17.594 0 0 1-1.033 2.407c-.223.425-.834 1.196-.848 1.605-.01.365.296.963.444 1.303.39.893.74 1.654.988 2.608.177.682.402 2.224.38 2.908l-.194 2.708 1.882-.389c.356-.052 1.194-.124 1.464-.306.242-.165.428-.56.608-.81.252-.35.818-.872.937-1.203.072-.195.06-.493.06-.702V69.05c-.025-2.1-1.04-4.662-1.956-6.518-.517-1.048-1.127-2.243-1.905-3.109-.426.436-.625 1.225-.826 1.805zm6.958.503c-.566.932-.78 2.237-.926 3.308-.113.835-.283 2.103-.057 2.908.724-.432 1.291-1.283 1.723-2.006l2.018-4.011c.292-.626.993-1.82 1.11-2.407-1.165.058-3.253 1.196-3.868 2.208zm-79.918 1.403c-.852 1.701-1.86 4.822-2.051 6.719v.802l-.102.902c-.032 1.453.204 1.715 1.079 2.808.271.34.496.748.9.938l2.77.486c.834.125.301-.855.3-2.126-.004-2.117-.043-2.642.645-4.713.175-.53.42-1.104.666-1.605.143-.292.41-.782.417-1.103.015-.636-.788-1.372-1.1-1.905l-1.619-3.911c-.612.387-1.56 2.017-1.905 2.708zm-5.125-.97c-.416-.352-1.075-.672-1.584-.868-.619-.236-1.004-.443-1.683-.369.133.544.767 1.425 1.063 2.006.83 1.627 1.264 2.885 2.346 4.412.387.547 1.004 1.507 1.64 1.705 0-2.251.096-5.299-1.782-6.886zm51.485.97H53.92c-.76 0-2.228-.1-2.871.2l3.564.1 1.683-.1h2.475l1.288-.1-1.387-.1zm-15.347.1l-2.574.1h1.782l1.684.1 1.287-.1h2.178l1.188-.1h-5.545zm-2.143 2.582l.468.467c.247.354.288 1.232.29 1.664 0 .332-.087 1.513.17 1.7.44.32.423-.615.422-.797v-2.808c.003-.416.2-1.467 0-1.784-.285-.397-1.75-.028-2.276 0-.262-.019-.59-.06-.737.21-.114.213-.151.82-.154 1.072-.009.795-.08 3.073.099 3.71l.495-.1.1-2.808.296-1.504c.598.303.488.505.827.978zm15.595-1.78v5.215h.31l.133-2.607c.115-.605.298-.786.858-.602l.594-1.504c.681.544.79 1.07.792 1.905 0 .75.086 2.257.594 2.808l.116-1.203.082-3.912-3.48-.1zm-13.608.203c-.337.217-.329.754-.28 1.1.28 1.966.235 1.297.238 3.31 0 .24-.024.654.116.855.18.254.853.352 1.055.09.176-.226.12-1.41.116-1.747l-.099-1.504V64.24c-.287-.008-.938-.132-1.146 0zm2.73-.103l-.098 2.508.099 3.008c.369-.26.296-.582.297-1.003.002-1.444.085-3.1-.1-4.513H45.9zm2.97 2.808c.006.368-.001.489.199.803.29-.89.14-1.002.215-1.805.063-.677.217-1.166-.116-1.806-.448.566-.307 2.066-.297 2.808zm2.081-1.805l.197 2.507h.198c.023-1.031.277-2.522 0-3.51-.455.26-.406.508-.395 1.003zm3.068 3.11c.001.427-.04.63.198 1.002l.1-2.607-.1-2.508c-.298.739-.199 3.187-.198 4.112zm1.882-4.112c-.172.715-.1 2.207-.1 3.008 0 .645-.043 1.508.199 2.106l.099-1.203.099-1.505-.1-2.406H55.9zm-8.42 2.005v1.304l-.087.802.09 1.304 3.169-.1v-.201c-.486-.065-1.81-.033-.99-.802h-1.09c-.205.945-.867.464-.967-.1-.072-.406.135-1.429.167-1.906l-.09-2.206c-.282.56-.198 1.286-.202 1.905zm5.053 1.204c0 .4-.048.826.1 1.203l.098-4.312c-.33.576-.198 2.368-.198 3.109zm28.631.902c.246-.275 1.067-.96 1.155-1.203.122-.334-.192-.516-.479-.52-.325-.004-.567.209-.788.425-.82.803-1.351 1.837-1.952 2.802-.371.597-.892 1.315-1.022 2.006 1.019-.487 2.238-2.562 3.086-3.51zM20.38 69.352c-.31-.629-.764-1.595-1.242-2.087-.253-.26-.679-.546-1.058-.46-.245.056-.49.258-.381.537.133.34.745.572 1.318 1.308.883 1.131 1.337 2.64 2.527 3.51-.142-.915-.751-1.971-1.164-2.808zm60.647.803c-.227.433-.422.704-.374 1.203.437-.345.795-.804 1.188-1.203.63-.64 1.285-1.185 1.683-2.006-1.183-.313-2.023 1.1-2.497 2.006zm-63.939-1.56c-.21-.037-.3.004-.495.055.338.872.972 1.186 1.567 1.814.483.51.462.716 1.106 1.195-.159-.859-1.274-2.911-2.178-3.065zm32.178 1.861c-.465-.073-1.461-.215-1.87 0-.39.238-.53.79-.605 1.203.732.18 2.246.095 3.07.1.625.004.835.015.89.702h-4.356c-1.478.002-1.794.643-3.07 1.168-.484.201-1.065.235-1.584.236h-3.465c-.617 0-1.397-.067-1.98.1.248.403.62.87.78 1.304.17.467.074.89.52 1.234.271.21 1.108.408 1.472.513 1.35.39 1.98.538 3.366.768 2.75.458 4.496.397 7.228.393l1.188-.096h1.09l1.485-.104 3.861-.326c1.099-.186 2.51-.45 3.564-.78l1.188-.462c.631-.213.84.302 1.265 0 .338-.241.285-.69.418-1.04.243-.641.753-1.05.99-1.805h-1.484l-1.585.1h-3.663c-1.68-.002-1.717-.688-2.97-1.262-.84-.384-2.095.428-2.367-.545a4.65 4.65 0 0 1 0-.6v-.701l-3.376-.1zm34.843 1.926c.72-.247.711-1.79-.475-1.566-.899.576-.208 1.8.475 1.566zm-67.419.556c.768-.113.916-1.656-.192-1.718-.894.324-.747 1.856.192 1.718zm57.625.225c-.531-1.069-1.619-.993-2.573-.716-.342.1-.684.205-.971.426-.532.41-.39.91-.74 1.07-.385.175-.825-.438-1.447.065-.894.722-.982 2.675-1.198 3.768-.642-.183-1.2-.502-1.882-.155-.918.468-.95 1.577-1.48 2.357-.253.37-.667.591-.994.911-.893.876-1.856 2.287-1.486 3.606 1.702-.464 1.996-.812 3.068-2.206.46-.598.923-1.56 1.585-1.905l-.99 2.607c.728-.138 1.301-.599 1.882-1.04 1.51-1.15 2.774-2.904 3.677-4.576.371-.689.626-1.808 1.16-2.307v1.104c-.152.957-.91 2.454-1.5 3.209-.502.645-1.587 1.638-1.852 2.206.537-.156 1.012-.515 1.584-.529.79-.02.85.5 1.296.593.293.061.627-.114.882-.24.488-.241 1.273-.622 1.665-.98.43-.39.545-.782.504-1.351-.019-.255-.128-.57-.057-.802.06-.196.274-.443.406-.602.478-.583 1.017-1.076.936-1.906-.036-.374-.186-.642-.585-.678l-.89.077c.083-.464.203-1.594 0-2.006zm-47.537.017c-.341.479-.148 1.656 0 2.19h-.383c-.245 0-.652-.023-.86.117-.624.422.057 1.768.412 2.18.174.202.669.6.746.77.139.302-.212.56-.256 1.044-.057.61.418 1.042.85 1.38.439.345 1.815 1.127 2.374 1.02.368-.07.508-.444.896-.61.534-.228 1.259.14 1.779.316-.25-.648-1-1.358-1.47-1.905-.99-1.156-2.035-2.938-1.6-4.513h.198l.287 1.003.631 1.504c.614 1.24 2.002 2.962 3.043 3.852.7.599 1.555 1.288 2.475 1.463-.134-.99-1.419-2.107-.594-2.607.227.591.847 1.369 1.23 1.905.628.882.98 1.44 2.037 1.805.286.098.96.375 1.04-.115.04-.234-.143-.765-.235-.988-.204-.488-1.096-2.03-1.445-2.368-.289-.28-.543-.296-.811-.567-.85-.86-.414-2.522-2.113-2.577a1.696 1.696 0 0 0-.594.067c-.263.089-.476.263-.693.43-.38-1.024-.022-1.567-.639-3.108-.148-.369-.335-.86-.751-.972-.51-.135-.914.147-1.383.27-.315-1.927-3.253-2.34-4.17-.986zm64.662 1.071c-1.093.16-1.194-1.317-.374-1.806 1.325-.121 1.214 1.683.374 1.806zm-8.907-1.25c-.288-.232-.62-.397-.99-.429-1.285-.109-1.133 1.03-2.079 1.494-.091-.795-.538-1.21-1.287-.754-.187.114-.386.263-.494.462-.182.34 0 1.783 0 2.297-.002.48.014.991-.34 1.365-.236.252-.577.318-.693.58-.154.347.088.949.24 1.264 1.457-.503 3.44-3.689 4.257-4.312-.189.816-1.129 2.406-1.627 3.11-.376.53-.789.855-.947 1.503.988.001 2.022.175 2.6 1.103l.37 1.104c.625-.185 1.813-.486 1.85-1.304.025-.535-.4-.947-.31-1.216.07-.206.419-.408.625-.79.143-.265.196-.604.208-.902.034-.875-.242-1.117-.987-1.505.42-1.103.64-2.234-.396-3.07zm-62.079.271c-1.118-.654-2.418.284-2.76 1.395-.232.753.3 1.308.384 2.106-.936.24-1.304 1.384-.839 2.207.333.586.69.622.741.923.043.24-.197.547-.258.882-.122.669.393 1.063.95 1.264 1.27.46 1.13-.552 2.277-1.544.553-.477.946-.425 1.585-.623-.695-1.366-2.293-2.99-2.575-4.513.55.28.687.721 1.056 1.204a29.99 29.99 0 0 0 1.915 2.206c.42.421.805.835 1.386 1.003.014-.324.193-1.094.13-1.295-.144-.46-.818-.586-1.034-1.614-.257-1.04.294-2.087 0-2.703-.24-.582-.984-1.001-1.51-.452l-.557.749c-.237-.467-.42-.919-.89-1.195zM9.341 75.167c-.472.289-1.041-.088-1.117-.6-.063-.425.148-.75.458-1 1.275-.418 1.194 1.273.66 1.6zm36.458-.7h5.94c.873 0 2.79-.022 3.565.2v.201c-.3.086-1.814.199-2.178.2H47.88c-.82 0-3.003.09-3.664-.1.29-.52 1.044-.494 1.584-.501zm39.843 2.306c-.221.41-.516 1.24-.394 1.705.078.296.313.605.65.485.29-.104.695-.644.908-.886.597-.676 1.757-1.851 1.964-2.708-1.277.012-2.452.152-3.128 1.404zM47.087 75.57H54.81l1.683.1v.2c-.544.157-1.121.095-1.683.101l-1.287.1h-9.208c-.474-.002-1.003.035-1.287-.4l4.06-.101zM12.97 78.177l1.353 1.603c.161.187.387.505.671.386.81-.342.373-1.633.1-2.19-.656-1.332-1.822-1.58-3.155-1.403.289.657.586 1.052 1.031 1.604zm67.278 6.592c.914-.788.973-2.238 0-3.002-.403-.315-.97-.5-1.478-.463-.246.02-.674.149-.887.094-.415-.106-.472-.578-.817-.842-.417-.319-1.161-.273-1.683-.273.02.25.037.787 0 1.003-.318 1.095-1.51.91-2.355.903.568 1.06 1.24.914 2.277.902.73-.009 1.819-.375 2.277.402l-2.376.2c-.883.004-1.896.111-2.773.243-.744.112-1.402.11-2.079.46.21.3.48.576.65.902.154.293.178.612.461.828.363.276.748.083 1.464.292 1.198.35 1.475 1.251 1.485 2.39 1.413 0 2.555-.023 3.861-.674.892-.445 1.448-.924 1.368-2.034a4.18 4.18 0 0 0-.18-.903c.298-.123.537-.21.785-.428zM58.77 81.484c-1.62.52-3.658.881-5.346 1.133-.963.143-2.002.372-2.97.374-2.058.003-4.103.002-6.14-.344-.846-.144-2.29-.553-3.068-.903-.66-.296-1.058-.72-1.783-.859l1.436 4.112c.195.861.25 3.341.248 4.312-.002 1.583-.565 3.366-1.174 4.814-.173.413-.803 1.593-.603 1.984.15.292.881.646 1.182.798 1.218.617 2.54.99 3.862 1.294 1.162.268 3.546.835 4.653.837h2.377c1.521-.002 4.627-.681 6.138-1.117 1.466-.422 1.815-.488 3.168-1.276.263-.153.976-.594 1.12-.834.227-.38-.271-1.023-.45-1.386-.606-1.226-.812-2.277-1.04-3.61l-.313-2.106.08-.902c.096-1.407.146-2.827.447-4.212l.461-1.705.488-1.504-2.773 1.1zm-34.633-.625c-.524.387-.342.978-1.213.93-.782-.043-1.445-.114-2.054.52-.897.93-.783 3.05.97 3.39-.066.468-.222.925-.189 1.404.059.851.507 1.088 1.178 1.46.702.39 2.27.712 3.07.712l.792-.066c.184-.99.299-2.081 1.386-2.46.737-.256 1.243-.051 1.557-.25.242-.153.336-.545.455-.8l.661-1.103c-1.881-.799-4.986-.43-7.03-.702.977-1.088 3.145.029 4.038-.837.239-.231.31-.465.418-.768l-.891.187c-.603.027-1.402-.36-1.565-.99-.07-.272.04-.712.08-1.002-.314.045-1.457.223-1.663.375zm44.336.728l.1.1v-.1h-.1zm3.268 1.718c.2-.03.978-.092.775-.477-.145-.274-.71-.243-.973-.237-.783.02-1.96.465-2.674.801v.2c.611.163 2.168-.187 2.872-.287zm-41.881-.406c-.65-.108-.998-.255-1.386.393.611.287 1.227.254 1.88.309.567.064 1.45.205 1.98 0-.788-.417-1.61-.558-2.474-.702zm44.653 1.916c.761.294 2.143.62 1.88 1.686-.748-.24-1.304-.778-1.98-1.151-.51-.283-.791-.19-1.088-.754.507-.1.718.039 1.188.22zm-49.701 1.418c.147-.246.54-.43.79-.558.698-.36 1.284-.706 2.079-.779-.081.166-.092.224-.227.369-.41.438-2.155 1.424-2.743 1.537.007-.196-.004-.394.1-.569zm43.786-.616c-.183-.437-.703-.52-1.115-.553-1.203-.094-2.16.359-2.574 1.537h-.199c-.07-.2-.135-.418-.267-.586-.771-.991-2.232.67-2.802 1.183l-.678.616c-.284.316-.44.795-.14 1.163.243.298.682.234 1.016.19.682-.092 1.483-.067 2.178-.059.927.011 3.384.535 4.258.857.518.191 1.12.441 1.386.949-.547-.104-1.463-.618-1.752-.524-.456.15-.265 1.462-.212 1.827.193 1.305 1.811 2.353 3.053 2.053 1.285-.31.733-1.485.95-2.044.112-.288.403-.461.592-.715.328-.442.34-1.168-.08-1.558-.359-.336-.927-.31-1.161-.755-.205-.388.128-.803-.118-1.384-.318-.755-1.844-.716-2.56-.811.109-.406.394-.98.224-1.386zm-32.92.038c-.664-.54-2.459-.86-3.08 0-.457.608.395 1.128 0 1.446l-1.551.283c-1.232.397-.795 1.362-.792 2.326-1.007.057-1.927.816-1.421 1.902.224.479.618.524.78.915.088.264-.017.604 0 .894.073.67.475 1.052 1.136 1.092 1.189.073 2.47-.77 2.671-1.995.072-.432.393-2.21-.398-2.038l-1.382.634c.358-.75 1.228-1.098 1.98-1.318 1.678-.489 2.616-.667 4.357-.779.93-.06 1.963.495 2.323-.137.2-.294.172-.778 0-1.058-.324-.445-1.014-.686-1.412-1.01l-.624-.673c-.339-.29-1.224-.676-1.558-.197-.096.139-.167.571-.215.76-.602-.493-.41-.681-.813-1.047zm22.267 6.261c-.32.683-.998 1.318-1.65 1.673-.196.106-.64.33-.86.255-.416-.14.025-.662.172-.824.47-.524 1.634-1.52 1.414-2.307-.288-1.029-1.688-1.102-2.008-1.723-.137-.267.013-.793.073-1.085.064-.303.259-1.134.472-1.33.215-.198.563-.163.835-.191l1.881-.084-.396 1.404-1.98-.3-.198.902c1.743.277 3.08 1.827 2.245 3.61zm-11.666-5.255c.218-.23.897-.256 1.204-.26h2.277l-.93 2.306c-.752 1.872-1.429 3.77-1.446 5.817l-.99-.2c.212-1.622.968-4.925 1.88-6.218-.896-.224-1.385-.261-2.277 0l-.099-.1c.088-.359.141-1.093.38-1.345zm4.572 6.76c.322-.654 1.467-1.41 1.429-2.206-.046-.933-1.697-1.56-1.918-1.939-.188-.304-.073-.843 0-1.17.105-.415.33-1.16.646-1.446.406-.367 2.03-.26 2.613-.26-.04.305-.044.87-.325 1.039-.433.26-1.22.087-1.653.23-.26.087-.543.301-.432.616.1.283.573.382.826.485.455.182.92.449 1.224.85 1.334 1.76-.866 4.35-2.511 4.403.008-.222-.001-.395.101-.602zm-6.807-6.817c.15.11.197.425.227.6.087.502.141.994.142 1.503v2.808l-.076 1.001c.05.57.407.304.472 1.105-.9.164-1.393.138-2.277-.1l.307-.903c.217-.881.2-2.47.188-3.41-.003-.234-.089-1.218-.158-1.4-.09-.236-.368-.497-.535-.705.306-.176 1.388-.731 1.71-.499zm19.577 5.685c.16.139.675.627.884.364.196-.247-.167-.75-.323-.933-.402-.473-1.746-1.361-2.343-1.508.31.697 1.205 1.572 1.782 2.077zm-27.822.53c.606.186.709-.18 1.098-.602.578-.627 1.243-1.156 1.674-1.905-.977.111-2.499 1.558-2.772 2.507z" stroke="#fff" fill="#fff" stroke-width=".1"/></svg>